<svg xmlns="http://www.w3.org/2000/svg" width="83.276" height="47.775" viewBox="0 0 83.276 47.775" >
  <g id="Group_31" data-name="Group 31" transform="translate(-5757.743 -180.863)">
    <path id="Path_33" data-name="Path 33" d="M5757.743,200.567h11.343v6.478h-11.343Z" fill="#000"/>
    <path id="Path_34" data-name="Path 34" d="M5773.6,185.374a4.376,4.376,0,0,1,.352-1.747,4.588,4.588,0,0,1,2.412-2.409,4.473,4.473,0,0,1,3.493,0,4.572,4.572,0,0,1,2.408,2.409,4.463,4.463,0,0,1,0,3.493,4.584,4.584,0,0,1-2.408,2.411,4.5,4.5,0,0,1-3.493,0,4.6,4.6,0,0,1-2.412-2.411A4.361,4.361,0,0,1,5773.6,185.374Zm8.533,8.711v22.686h-8V194.085Z" fill="#000"/>
    <path id="Path_35" data-name="Path 35" d="M5787.14,194.085h8v3.208a10.138,10.138,0,0,1,3.316-3.009,10.4,10.4,0,0,1,3.937-.684,9.829,9.829,0,0,1,4.09.773,8.138,8.138,0,0,1,2.9,2.19,6.286,6.286,0,0,1,1.327,2.565,13.4,13.4,0,0,1,.353,3.227v14.416h-8V205.318a12.38,12.38,0,0,0-.242-2.719,3.412,3.412,0,0,0-.861-1.66,3.1,3.1,0,0,0-1.2-.751,4.484,4.484,0,0,0-1.416-.22,3.954,3.954,0,0,0-3.116,1.216,5.034,5.034,0,0,0-1.085,3.471v12.116h-8Z" fill="#000"/>
    <path id="Path_36" data-name="Path 36" d="M5841.019,194.085v21.139a38.493,38.493,0,0,1-.22,4.286,10.287,10.287,0,0,1-.619,2.23,8.364,8.364,0,0,1-1.66,2.721,11.164,11.164,0,0,1-2.719,2.188,14.351,14.351,0,0,1-3.6,1.458,18.163,18.163,0,0,1-9.222-.132,13.215,13.215,0,0,1-3.868-1.835,10.7,10.7,0,0,1-2.721-2.742,9.113,9.113,0,0,1-1.415-3.426h9.021q.842,2.253,3.8,2.255a5.091,5.091,0,0,0,3.867-1.415,6.712,6.712,0,0,0,1.351-4.394V214.25a12.679,12.679,0,0,1-1.455,1.394,9.652,9.652,0,0,1-1.657.906,7.909,7.909,0,0,1-1.771.509,12.406,12.406,0,0,1-2.032.154,11.608,11.608,0,0,1-4.467-.84,10.332,10.332,0,0,1-5.816-5.948,12.778,12.778,0,0,1-.818-4.666,13.032,13.032,0,0,1,.885-4.841,12.451,12.451,0,0,1,2.409-3.892,11.011,11.011,0,0,1,8.2-3.56c2.682,0,5.63,1.37,6.519,3.827v-3.208Zm-18.325,11.295a5.3,5.3,0,0,0,.4,2.056,5.245,5.245,0,0,0,1.085,1.658,4.8,4.8,0,0,0,1.636,1.106,5.254,5.254,0,0,0,2.056.4,5.154,5.154,0,0,0,2.013-.4,4.857,4.857,0,0,0,1.636-1.106,5.625,5.625,0,0,0,1.1-1.658,5.091,5.091,0,0,0,0-4.045,5.481,5.481,0,0,0-1.128-1.636,5.186,5.186,0,0,0-3.625-1.505,4.783,4.783,0,0,0-1.991.42,5.772,5.772,0,0,0-1.637,1.106,5.274,5.274,0,0,0-1.127,1.615A4.785,4.785,0,0,0,5822.694,205.38Z" fill="#000"/>
  </g>
</svg>
